<?xml version="1.0" standalone="no"?>
<!DOCTYPE svg PUBLIC "-//W3C//DTD SVG 20010904//EN"
 "http://www.w3.org/TR/2001/REC-SVG-20010904/DTD/svg10.dtd">
<svg version="1.0" xmlns="http://www.w3.org/2000/svg"
 width="140.000000pt" height="48.000000pt" viewBox="0 0 140.000000 48.000000"
 preserveAspectRatio="xMidYMid meet">

<g transform="translate(0.000000,48.000000) scale(0.100000,-0.100000)"
fill="#000000" stroke="none">
<path d="M139 361 c-48 -48 -36 -97 32 -131 31 -16 40 -26 37 -43 -2 -18 -9
-22 -38 -21 -19 0 -41 2 -49 5 -22 6 -26 -33 -5 -48 10 -7 37 -13 60 -13 58 0
95 32 97 82 1 43 -13 63 -65 89 -54 28 -49 54 12 55 30 0 47 6 54 18 15 23 -7
36 -62 36 -35 0 -49 -6 -73 -29z"/>
<path d="M345 263 c-31 -71 -59 -134 -62 -140 -3 -9 4 -13 21 -13 18 0 30 8
41 31 15 28 20 30 63 27 40 -3 47 -6 52 -28 4 -18 13 -26 33 -28 33 -4 33 -4
2 128 -14 58 -27 115 -30 128 -4 16 -13 22 -34 22 -27 0 -32 -7 -86 -127z m92
-40 c-3 -2 -16 -3 -30 -1 l-24 3 20 45 20 45 9 -43 c5 -24 7 -46 5 -49z"/>
<path d="M585 378 c-8 -21 -32 -258 -27 -263 3 -3 15 -5 27 -5 23 0 35 30 35
86 0 22 4 24 50 24 47 0 50 2 50 25 0 23 -4 25 -46 25 -45 0 -45 0 -42 33 3
31 5 32 53 37 42 4 50 8 53 28 3 21 0 22 -73 22 -51 0 -77 -4 -80 -12z"/>
<path d="M785 378 c-3 -7 -11 -69 -18 -136 -10 -94 -11 -125 -2 -128 7 -3 45
-4 86 -2 68 3 74 5 77 26 3 21 0 22 -52 22 l-56 0 0 34 0 35 53 3 c44 3 52 6
52 23 0 17 -8 20 -48 23 -46 3 -48 4 -45 30 3 25 6 27 61 30 53 3 57 5 57 27
0 24 -2 25 -80 25 -55 0 -82 -4 -85 -12z"/>
<path d="M1120 378 c0 -6 14 -36 30 -65 l31 -54 -51 -68 c-27 -38 -50 -71 -50
-75 0 -3 13 -6 29 -6 24 0 35 8 58 45 15 25 31 45 35 45 3 0 18 -20 32 -45 20
-34 33 -45 51 -45 14 0 25 3 25 8 -1 4 -16 36 -34 72 l-33 64 43 60 c24 33 44
64 44 68 0 4 -10 8 -22 8 -15 0 -36 -15 -59 -42 l-37 -42 -21 42 c-16 32 -27
42 -46 42 -14 0 -25 -5 -25 -12z"/>
<path d="M977 233 c-4 -3 -7 -12 -7 -20 0 -9 15 -13 50 -13 43 0 50 3 50 20 0
17 -7 20 -43 20 -24 0 -47 -3 -50 -7z"/>
</g>
</svg>
